<svg width="18" height="17" viewBox="0 0 18 17" fill="none" xmlns="http://www.w3.org/2000/svg">
<path d="M12.3327 8.16663C12.5688 8.16663 12.7667 8.08676 12.9264 7.92704C13.0862 7.76732 13.166 7.5694 13.166 7.33329C13.166 7.09718 13.0862 6.89926 12.9264 6.73954C12.7667 6.57982 12.5688 6.49996 12.3327 6.49996C12.0966 6.49996 11.8987 6.57982 11.7389 6.73954C11.5792 6.89926 11.4993 7.09718 11.4993 7.33329C11.4993 7.5694 11.5792 7.76732 11.7389 7.92704C11.8987 8.08676 12.0966 8.16663 12.3327 8.16663ZM5.66602 6.49996H9.83268V4.83329H5.66602V6.49996ZM2.74935 16.5C2.27713 14.9166 1.81185 13.3368 1.35352 11.7604C0.895182 10.184 0.666016 8.5694 0.666016 6.91663C0.666016 5.63885 1.11046 4.55551 1.99935 3.66663C2.88824 2.77774 3.97157 2.33329 5.24935 2.33329H9.41601C9.81879 1.80551 10.3084 1.39579 10.8848 1.10413C11.4612 0.812459 12.0827 0.666626 12.7493 0.666626C13.0966 0.666626 13.3917 0.788154 13.6348 1.03121C13.8778 1.27426 13.9993 1.5694 13.9993 1.91663C13.9993 1.99996 13.9889 2.08329 13.9681 2.16663C13.9473 2.24996 13.923 2.32635 13.8952 2.39579C13.8396 2.54857 13.7875 2.70482 13.7389 2.86454C13.6903 3.02426 13.6521 3.18746 13.6243 3.35413L15.5202 5.24996H17.3327V11.0625L14.9785 11.8333L13.5827 16.5H8.99935V14.8333H7.33268V16.5H2.74935ZM3.99935 14.8333H5.66602V13.1666H10.666V14.8333H12.3327L13.6243 10.5416L15.666 9.85413V6.91663H14.8327L11.916 3.99996C11.916 3.72218 11.9334 3.45482 11.9681 3.19788C12.0028 2.94093 12.0549 2.68051 12.1243 2.41663C11.7216 2.52774 11.3674 2.71871 11.0618 2.98954C10.7563 3.26038 10.5341 3.59718 10.3952 3.99996H5.24935C4.44379 3.99996 3.75629 4.28468 3.18685 4.85413C2.6174 5.42357 2.33268 6.11107 2.33268 6.91663C2.33268 8.27774 2.52018 9.6076 2.89518 10.9062C3.27018 12.2048 3.63824 13.5138 3.99935 14.8333Z" fill="black"/>
</svg>
