<svg width="21" height="20" viewBox="0 0 21 20" fill="none" xmlns="http://www.w3.org/2000/svg">
<path d="M13.2474 13.9165L14.4141 12.7498L11.3307 9.6665V5.83317H9.66406V10.3332L13.2474 13.9165ZM10.4974 18.3332C9.34462 18.3332 8.26128 18.1144 7.2474 17.6769C6.23351 17.2394 5.35156 16.6457 4.60156 15.8957C3.85156 15.1457 3.25781 14.2637 2.82031 13.2498C2.38281 12.2359 2.16406 11.1526 2.16406 9.99984C2.16406 8.84706 2.38281 7.76373 2.82031 6.74984C3.25781 5.73595 3.85156 4.854 4.60156 4.104C5.35156 3.354 6.23351 2.76025 7.2474 2.32275C8.26128 1.88525 9.34462 1.6665 10.4974 1.6665C11.6502 1.6665 12.7335 1.88525 13.7474 2.32275C14.7613 2.76025 15.6432 3.354 16.3932 4.104C17.1432 4.854 17.737 5.73595 18.1745 6.74984C18.612 7.76373 18.8307 8.84706 18.8307 9.99984C18.8307 11.1526 18.612 12.2359 18.1745 13.2498C17.737 14.2637 17.1432 15.1457 16.3932 15.8957C15.6432 16.6457 14.7613 17.2394 13.7474 17.6769C12.7335 18.1144 11.6502 18.3332 10.4974 18.3332ZM10.4974 16.6665C12.3446 16.6665 13.9175 16.0172 15.2161 14.7186C16.5148 13.42 17.1641 11.8471 17.1641 9.99984C17.1641 8.15261 16.5148 6.5797 15.2161 5.28109C13.9175 3.98248 12.3446 3.33317 10.4974 3.33317C8.65017 3.33317 7.07726 3.98248 5.77865 5.28109C4.48003 6.5797 3.83073 8.15261 3.83073 9.99984C3.83073 11.8471 4.48003 13.42 5.77865 14.7186C7.07726 16.0172 8.65017 16.6665 10.4974 16.6665Z" fill="black" fill-opacity="0.5"/>
</svg>
