<svg width="24" height="25" viewBox="0 0 24 25" fill="none" xmlns="http://www.w3.org/2000/svg">
<path d="M8 17.5C8.28333 17.5 8.52083 17.4042 8.7125 17.2125C8.90417 17.0208 9 16.7833 9 16.5C9 16.2167 8.90417 15.9792 8.7125 15.7875C8.52083 15.5958 8.28333 15.5 8 15.5C7.71667 15.5 7.47917 15.5958 7.2875 15.7875C7.09583 15.9792 7 16.2167 7 16.5C7 16.7833 7.09583 17.0208 7.2875 17.2125C7.47917 17.4042 7.71667 17.5 8 17.5ZM8 13.5C8.28333 13.5 8.52083 13.4042 8.7125 13.2125C8.90417 13.0208 9 12.7833 9 12.5C9 12.2167 8.90417 11.9792 8.7125 11.7875C8.52083 11.5958 8.28333 11.5 8 11.5C7.71667 11.5 7.47917 11.5958 7.2875 11.7875C7.09583 11.9792 7 12.2167 7 12.5C7 12.7833 7.09583 13.0208 7.2875 13.2125C7.47917 13.4042 7.71667 13.5 8 13.5ZM8 9.5C8.28333 9.5 8.52083 9.40417 8.7125 9.2125C8.90417 9.02083 9 8.78333 9 8.5C9 8.21667 8.90417 7.97917 8.7125 7.7875C8.52083 7.59583 8.28333 7.5 8 7.5C7.71667 7.5 7.47917 7.59583 7.2875 7.7875C7.09583 7.97917 7 8.21667 7 8.5C7 8.78333 7.09583 9.02083 7.2875 9.2125C7.47917 9.40417 7.71667 9.5 8 9.5ZM11 17.5H17V15.5H11V17.5ZM11 13.5H17V11.5H11V13.5ZM11 9.5H17V7.5H11V9.5ZM5 21.5C4.45 21.5 3.97917 21.3042 3.5875 20.9125C3.19583 20.5208 3 20.05 3 19.5V5.5C3 4.95 3.19583 4.47917 3.5875 4.0875C3.97917 3.69583 4.45 3.5 5 3.5H19C19.55 3.5 20.0208 3.69583 20.4125 4.0875C20.8042 4.47917 21 4.95 21 5.5V19.5C21 20.05 20.8042 20.5208 20.4125 20.9125C20.0208 21.3042 19.55 21.5 19 21.5H5ZM5 19.5H19V5.5H5V19.5Z" fill="#006DF0"/>
</svg>
