<svg width="25" height="24" viewBox="0 0 25 24" fill="none" xmlns="http://www.w3.org/2000/svg">
<g id="app_badging_24dp_FILL0_wght400_GRAD0_opsz24 1">
<path id="Vector" d="M2.40001 12.0001C2.40001 10.5334 2.68334 9.17511 3.25001 7.92511C3.81668 6.67511 4.59168 5.59178 5.57501 4.67511C6.55834 3.75844 7.69168 3.06261 8.97501 2.58761C10.2583 2.11261 11.6333 1.92511 13.1 2.02511C13.3833 2.05844 13.6083 2.17928 13.775 2.38761C13.9417 2.59594 14 2.84178 13.95 3.12511C13.9 3.40844 13.7625 3.63344 13.5375 3.80011C13.3125 3.96678 13.0583 4.04178 12.775 4.02511C11.625 3.97511 10.5458 4.13761 9.53751 4.51261C8.52918 4.88761 7.64168 5.44178 6.87501 6.17511C6.10834 6.90844 5.50418 7.77094 5.06251 8.76261C4.62084 9.75428 4.40001 10.8334 4.40001 12.0001C4.40001 14.2334 5.17501 16.1251 6.72501 17.6751C8.27501 19.2251 10.1667 20.0001 12.4 20.0001C13.55 20.0001 14.6208 19.7793 15.6125 19.3376C16.6042 18.8959 17.4667 18.2918 18.2 17.5251C18.9667 16.7251 19.5333 15.8168 19.9 14.8001C20.2667 13.7834 20.425 12.7251 20.375 11.6251C20.3583 11.3418 20.4333 11.0876 20.6 10.8626C20.7667 10.6376 20.9917 10.5001 21.275 10.4501C21.5583 10.4001 21.8042 10.4584 22.0125 10.6251C22.2208 10.7918 22.3417 11.0168 22.375 11.3001C22.475 12.7501 22.2875 14.1168 21.8125 15.4001C21.3375 16.6834 20.65 17.8168 19.75 18.8001C18.8 19.8334 17.6917 20.6251 16.425 21.1751C15.1583 21.7251 13.8167 22.0001 12.4 22.0001C11.0167 22.0001 9.71668 21.7376 8.50001 21.2126C7.28334 20.6876 6.22501 19.9751 5.32501 19.0751C4.42501 18.1751 3.71251 17.1168 3.18751 15.9001C2.66251 14.6834 2.40001 13.3834 2.40001 12.0001ZM18.4 9.00011C17.5667 9.00011 16.8583 8.70844 16.275 8.12511C15.6917 7.54178 15.4 6.83344 15.4 6.00011C15.4 5.16678 15.6917 4.45844 16.275 3.87511C16.8583 3.29178 17.5667 3.00011 18.4 3.00011C19.2333 3.00011 19.9417 3.29178 20.525 3.87511C21.1083 4.45844 21.4 5.16678 21.4 6.00011C21.4 6.83344 21.1083 7.54178 20.525 8.12511C19.9417 8.70844 19.2333 9.00011 18.4 9.00011Z" fill="#5F6368"/>
</g>
</svg>
