<svg width="26" height="26" viewBox="0 0 26 26" fill="none" xmlns="http://www.w3.org/2000/svg">
<g id="Social Media / Instagram">
<rect id="Logo Container" width="26" height="26" rx="13" fill="black" fill-opacity="0.5"/>
<g id="Group 15">
<path id="Vector" d="M10.8363 13.0333C10.8363 11.8357 11.8067 10.8645 13.004 10.8645C14.2013 10.8645 15.1721 11.8357 15.1721 13.0333C15.1721 14.2309 14.2013 15.2021 13.004 15.2021C11.8067 15.2021 10.8363 14.2309 10.8363 13.0333ZM9.66429 13.0333C9.66429 14.8783 11.1595 16.3739 13.004 16.3739C14.8485 16.3739 16.3436 14.8783 16.3436 13.0333C16.3436 11.1883 14.8485 9.69267 13.004 9.69267C11.1595 9.69267 9.66429 11.1883 9.66429 13.0333ZM15.6954 9.56021C15.6953 9.71461 15.741 9.86557 15.8267 9.99399C15.9124 10.1224 16.0343 10.2225 16.1769 10.2817C16.3195 10.3408 16.4764 10.3563 16.6278 10.3263C16.7792 10.2962 16.9183 10.2219 17.0275 10.1128C17.1367 10.0036 17.2111 9.86456 17.2413 9.71313C17.2714 9.56171 17.256 9.40473 17.197 9.26205C17.138 9.11937 17.038 8.99741 16.9097 8.91157C16.7814 8.82574 16.6305 8.77989 16.4762 8.77983H16.4758C16.2689 8.77992 16.0705 8.86216 15.9242 9.00848C15.7779 9.1548 15.6956 9.35324 15.6954 9.56021ZM10.3764 18.3289C9.74228 18.3 9.39763 18.1943 9.16858 18.1051C8.86493 17.9868 8.64827 17.846 8.42048 17.6184C8.19269 17.3909 8.05168 17.1744 7.93399 16.8706C7.8447 16.6416 7.73908 16.2968 7.71025 15.6625C7.67872 14.9767 7.67243 14.7707 7.67243 13.0334C7.67243 11.296 7.67924 11.0906 7.71025 10.4042C7.73913 9.76995 7.84554 9.42577 7.93399 9.19609C8.0522 8.89235 8.193 8.67563 8.42048 8.44777C8.64796 8.21991 8.86441 8.07887 9.16858 7.96114C9.39752 7.87183 9.74228 7.76618 10.3764 7.73734C11.0619 7.7058 11.2679 7.6995 13.004 7.6995C14.74 7.6995 14.9462 7.70632 15.6323 7.73734C16.2664 7.76623 16.6105 7.87266 16.8401 7.96114C17.1438 8.07887 17.3604 8.22023 17.5882 8.44777C17.816 8.67532 17.9565 8.89235 18.0747 9.19609C18.164 9.4251 18.2696 9.76995 18.2984 10.4042C18.33 11.0906 18.3363 11.296 18.3363 13.0334C18.3363 14.7707 18.33 14.9761 18.2984 15.6625C18.2696 16.2968 18.1634 16.6415 18.0747 16.8706C17.9565 17.1744 17.8157 17.3911 17.5882 17.6184C17.3607 17.8458 17.1438 17.9868 16.8401 18.1051C16.6112 18.1944 16.2664 18.3 15.6323 18.3289C14.9468 18.3604 14.7408 18.3667 13.004 18.3667C11.2671 18.3667 11.0617 18.3604 10.3764 18.3289ZM10.3225 6.56693C9.63015 6.59847 9.15703 6.70828 8.74385 6.86911C8.31595 7.03519 7.95371 7.258 7.59173 7.61951C7.22975 7.98102 7.00757 8.34394 6.84154 8.77197C6.68077 9.18553 6.57098 9.65852 6.53945 10.3511C6.5074 11.0448 6.50006 11.2665 6.50006 13.0333C6.50006 14.8001 6.5074 15.0218 6.53945 15.7155C6.57098 16.4081 6.68077 16.8811 6.84154 17.2946C7.00757 17.7224 7.2298 18.0857 7.59173 18.4471C7.95366 18.8085 8.31595 19.031 8.74385 19.1975C9.15781 19.3583 9.63015 19.4681 10.3225 19.4997C11.0164 19.5312 11.2377 19.5391 13.004 19.5391C14.7702 19.5391 14.9919 19.5317 15.6854 19.4997C16.3778 19.4681 16.8506 19.3583 17.2641 19.1975C17.6917 19.031 18.0542 18.8086 18.4162 18.4471C18.7782 18.0856 18.9999 17.7224 19.1664 17.2946C19.3272 16.8811 19.4375 16.4081 19.4685 15.7155C19.5 15.0213 19.5073 14.8001 19.5073 13.0333C19.5073 11.2665 19.5 11.0448 19.4685 10.3511C19.4369 9.65847 19.3272 9.18527 19.1664 8.77197C18.9999 8.3442 18.7776 7.98159 18.4162 7.61951C18.0548 7.25742 17.6917 7.03519 17.2646 6.86911C16.8506 6.70828 16.3778 6.59795 15.6859 6.56693C14.9924 6.53539 14.7707 6.52753 13.0045 6.52753C11.2382 6.52753 11.0164 6.53487 10.3225 6.56693Z" fill="white"/>
</g>
</g>
</svg>
