<svg width="26" height="26" viewBox="0 0 26 26" fill="none" xmlns="http://www.w3.org/2000/svg">
<g id="Social Media / Youtube">
<rect id="Logo Container" width="26" height="26" rx="13" fill="black" fill-opacity="0.5"/>
<g id="Vector">
<path d="M20.2314 9.42387C20.0617 8.78569 19.5595 8.28223 18.9206 8.10969C17.7654 7.80005 13.1303 7.80005 13.1303 7.80005C13.1303 7.80005 8.49755 7.80005 7.33996 8.10969C6.7034 8.27987 6.20123 8.78332 6.02912 9.42387C5.72028 10.582 5.72028 13 5.72028 13C5.72028 13 5.72028 15.418 6.02912 16.5762C6.19887 17.2144 6.70105 17.7179 7.33996 17.8904C8.49755 18.2 13.1303 18.2 13.1303 18.2C13.1303 18.2 17.7654 18.2 18.9206 17.8904C19.5571 17.7202 20.0593 17.2168 20.2314 16.5762C20.5403 15.418 20.5403 13 20.5403 13C20.5403 13 20.5403 10.582 20.2314 9.42387Z" fill="white"/>
<path d="M11.6497 15.229L15.4997 13L11.6497 10.7711V15.229Z" fill="black" fill-opacity="0.5"/>
</g>
</g>
</svg>
