<svg width="26" height="26" viewBox="0 0 26 26" fill="none" xmlns="http://www.w3.org/2000/svg">
<g id="Social Media / Telegram">
<rect id="Logo Container" width="26" height="26" rx="13" fill="black" fill-opacity="0.5"/>
<path id="Vector" d="M7.23331 12.5395C7.23331 12.5395 12.5229 10.3116 14.3575 9.52709C15.0607 9.21332 17.4456 8.20916 17.4456 8.20916C17.4456 8.20916 18.5464 7.76988 18.4546 8.83675C18.424 9.27607 18.1794 10.8136 17.9348 12.4767C17.5679 14.8302 17.1704 17.4033 17.1704 17.4033C17.1704 17.4033 17.1093 18.125 16.5895 18.2505C16.0697 18.376 15.2136 17.8112 15.0607 17.6857C14.9384 17.5916 12.7675 16.1795 11.9726 15.4891C11.7585 15.3009 11.5139 14.9243 12.0031 14.485C13.1039 13.4495 14.4186 12.163 15.2136 11.3471C15.5805 10.9705 15.9474 10.0919 14.4186 11.1588C12.2477 12.6964 10.1074 14.1398 10.1074 14.1398C10.1074 14.1398 9.61821 14.4536 8.70095 14.1712C7.78364 13.8888 6.71349 13.5122 6.71349 13.5122C6.71349 13.5122 5.97971 13.0416 7.23331 12.5395Z" fill="white"/>
</g>
</svg>
