<svg width="25" height="24" viewBox="0 0 25 24" fill="none" xmlns="http://www.w3.org/2000/svg">
<g id="imagesmode_24dp_FILL0_wght400_GRAD0_opsz24 1">
<path id="Vector" d="M5.60004 21C5.05004 21 4.5792 20.8042 4.18754 20.4125C3.79587 20.0208 3.60004 19.55 3.60004 19V5C3.60004 4.45 3.79587 3.97917 4.18754 3.5875C4.5792 3.19583 5.05004 3 5.60004 3H19.6C20.15 3 20.6209 3.19583 21.0125 3.5875C21.4042 3.97917 21.6 4.45 21.6 5V19C21.6 19.55 21.4042 20.0208 21.0125 20.4125C20.6209 20.8042 20.15 21 19.6 21H5.60004ZM5.60004 19H19.6V5H5.60004V19ZM6.60004 17H18.6L14.85 12L11.85 16L9.60004 13L6.60004 17ZM9.10004 10C9.5167 10 9.87087 9.85417 10.1625 9.5625C10.4542 9.27083 10.6 8.91667 10.6 8.5C10.6 8.08333 10.4542 7.72917 10.1625 7.4375C9.87087 7.14583 9.5167 7 9.10004 7C8.68337 7 8.3292 7.14583 8.03754 7.4375C7.74587 7.72917 7.60004 8.08333 7.60004 8.5C7.60004 8.91667 7.74587 9.27083 8.03754 9.5625C8.3292 9.85417 8.68337 10 9.10004 10Z" fill="black" fill-opacity="0.5"/>
</g>
</svg>
