<svg width="40" height="40" viewBox="0 0 40 40" fill="none" xmlns="http://www.w3.org/2000/svg">
<rect width="40" height="40" rx="20" fill="url(#paint0_linear_2001_3462)"/>
<path d="M16.6713 20.0512C16.6713 18.2087 18.1641 16.7147 20.0061 16.7147C21.848 16.7147 23.3417 18.2087 23.3417 20.0512C23.3417 21.8938 21.848 23.3878 20.0061 23.3878C18.1641 23.3878 16.6713 21.8938 16.6713 20.0512ZM14.8681 20.0512C14.8681 22.8898 17.1684 25.1907 20.0061 25.1907C22.8438 25.1907 25.144 22.8898 25.144 20.0512C25.144 17.2127 22.8438 14.9118 20.0061 14.9118C17.1684 14.9118 14.8681 17.2127 14.8681 20.0512ZM24.1467 14.708C24.1466 14.9456 24.2169 15.1778 24.3488 15.3754C24.4807 15.5729 24.6681 15.727 24.8875 15.818C25.1068 15.909 25.3483 15.9328 25.5812 15.8866C25.8141 15.8403 26.0281 15.726 26.1961 15.5581C26.3641 15.3902 26.4786 15.1763 26.525 14.9433C26.5714 14.7103 26.5477 14.4688 26.4569 14.2493C26.3661 14.0298 26.2123 13.8422 26.0149 13.7101C25.8175 13.5781 25.5854 13.5075 25.3479 13.5074H25.3474C25.0291 13.5076 24.7239 13.6341 24.4987 13.8592C24.2736 14.0843 24.147 14.3896 24.1467 14.708ZM15.9636 28.1982C14.9881 28.1538 14.4579 27.9913 14.1055 27.8539C13.6383 27.672 13.305 27.4553 12.9546 27.1053C12.6041 26.7552 12.3872 26.4221 12.2061 25.9548C12.0687 25.6025 11.9062 25.0719 11.8619 24.0961C11.8134 23.0411 11.8037 22.7242 11.8037 20.0513C11.8037 17.3785 11.8142 17.0624 11.8619 16.0065C11.9063 15.0307 12.07 14.5012 12.2061 14.1478C12.388 13.6805 12.6046 13.3471 12.9546 12.9966C13.3045 12.646 13.6375 12.429 14.1055 12.2479C14.4577 12.1105 14.9881 11.948 15.9636 11.9036C17.0183 11.8551 17.3352 11.8454 20.0061 11.8454C22.6769 11.8454 22.9941 11.8559 24.0497 11.9036C25.0252 11.9481 25.5546 12.1118 25.9078 12.2479C26.375 12.429 26.7083 12.6465 27.0588 12.9966C27.4092 13.3467 27.6253 13.6805 27.8072 14.1478C27.9446 14.5002 28.1071 15.0307 28.1514 16.0065C28.1999 17.0624 28.2096 17.3785 28.2096 20.0513C28.2096 22.7242 28.1999 23.0402 28.1514 24.0961C28.107 25.0719 27.9437 25.6023 27.8072 25.9548C27.6253 26.4221 27.4087 26.7555 27.0588 27.1053C26.7088 27.455 26.375 27.672 25.9078 27.8539C25.5556 27.9913 25.0252 28.1539 24.0497 28.1982C22.995 28.2468 22.6781 28.2565 20.0061 28.2565C17.334 28.2565 17.018 28.2468 15.9636 28.1982ZM15.8808 10.103C14.8156 10.1515 14.0877 10.3204 13.4521 10.5679C12.7937 10.8234 12.2364 11.1662 11.6795 11.7223C11.1227 12.2785 10.7808 12.8368 10.5254 13.4953C10.2781 14.1316 10.1092 14.8593 10.0607 15.9248C10.0113 16.992 10.0001 17.3332 10.0001 20.0512C10.0001 22.7693 10.0113 23.1105 10.0607 24.1777C10.1092 25.2433 10.2781 25.9709 10.5254 26.6071C10.7808 27.2653 11.1227 27.8242 11.6795 28.3802C12.2364 28.9361 12.7937 29.2784 13.4521 29.5346C14.0889 29.782 14.8156 29.951 15.8808 29.9995C16.9482 30.048 17.2888 30.0601 20.0061 30.0601C22.7234 30.0601 23.0645 30.0488 24.1313 29.9995C25.1966 29.951 25.924 29.782 26.5601 29.5346C27.218 29.2784 27.7757 28.9363 28.3326 28.3802C28.8895 27.824 29.2306 27.2653 29.4867 26.6071C29.7341 25.9709 29.9038 25.2432 29.9515 24.1777C30 23.1097 30.0113 22.7693 30.0113 20.0512C30.0113 17.3332 30 16.992 29.9515 15.9248C29.903 14.8592 29.7341 14.1312 29.4867 13.4953C29.2306 12.8372 28.8886 12.2794 28.3326 11.7223C27.7766 11.1653 27.218 10.8234 26.5609 10.5679C25.924 10.3204 25.1965 10.1507 24.1321 10.103C23.0653 10.0544 22.7242 10.0424 20.0069 10.0424C17.2896 10.0424 16.9482 10.0536 15.8808 10.103Z" fill="white"/>
<defs>
<linearGradient id="paint0_linear_2001_3462" x1="39.2312" y1="40" x2="-0.768799" y2="-1.07669e-06" gradientUnits="userSpaceOnUse">
<stop stop-color="#FBE18A"/>
<stop offset="0.21" stop-color="#FCBB45"/>
<stop offset="0.38" stop-color="#F75274"/>
<stop offset="0.52" stop-color="#D53692"/>
<stop offset="0.74" stop-color="#8F39CE"/>
<stop offset="1" stop-color="#5B4FE9"/>
</linearGradient>
</defs>
</svg>
