<svg width="25" height="24" viewBox="0 0 25 24" fill="none" xmlns="http://www.w3.org/2000/svg">
<g id="newsmode_24dp_FILL0_wght400_GRAD0_opsz24 1">
<path id="Vector" d="M4.79999 21C4.24999 21 3.77915 20.8042 3.38749 20.4125C2.99582 20.0208 2.79999 19.55 2.79999 19V5C2.79999 4.45 2.99582 3.97917 3.38749 3.5875C3.77915 3.19583 4.24999 3 4.79999 3H20.8C21.35 3 21.8208 3.19583 22.2125 3.5875C22.6042 3.97917 22.8 4.45 22.8 5V19C22.8 19.55 22.6042 20.0208 22.2125 20.4125C21.8208 20.8042 21.35 21 20.8 21H4.79999ZM4.79999 19H20.8V5H4.79999V19ZM6.79999 17H18.8V15H6.79999V17ZM6.79999 13H10.8V7H6.79999V13ZM12.8 13H18.8V11H12.8V13ZM12.8 9H18.8V7H12.8V9Z" fill="black" fill-opacity="0.5"/>
</g>
</svg>
