<svg width="25" height="24" viewBox="0 0 25 24" fill="none" xmlns="http://www.w3.org/2000/svg">
<g id="play_circle_24dp_FILL0_wght400_GRAD0_opsz24 (2) 1">
<path id="Vector" d="M9.70013 16.5L16.7001 12L9.70013 7.5V16.5ZM12.2001 22C10.8168 22 9.5168 21.7375 8.30013 21.2125C7.08347 20.6875 6.02513 19.975 5.12513 19.075C4.22513 18.175 3.51263 17.1167 2.98763 15.9C2.46263 14.6833 2.20013 13.3833 2.20013 12C2.20013 10.6167 2.46263 9.31667 2.98763 8.1C3.51263 6.88333 4.22513 5.825 5.12513 4.925C6.02513 4.025 7.08347 3.3125 8.30013 2.7875C9.5168 2.2625 10.8168 2 12.2001 2C13.5835 2 14.8835 2.2625 16.1001 2.7875C17.3168 3.3125 18.3751 4.025 19.2751 4.925C20.1751 5.825 20.8876 6.88333 21.4126 8.1C21.9376 9.31667 22.2001 10.6167 22.2001 12C22.2001 13.3833 21.9376 14.6833 21.4126 15.9C20.8876 17.1167 20.1751 18.175 19.2751 19.075C18.3751 19.975 17.3168 20.6875 16.1001 21.2125C14.8835 21.7375 13.5835 22 12.2001 22ZM12.2001 20C14.4335 20 16.3251 19.225 17.8751 17.675C19.4251 16.125 20.2001 14.2333 20.2001 12C20.2001 9.76667 19.4251 7.875 17.8751 6.325C16.3251 4.775 14.4335 4 12.2001 4C9.9668 4 8.07513 4.775 6.52513 6.325C4.97513 7.875 4.20013 9.76667 4.20013 12C4.20013 14.2333 4.97513 16.125 6.52513 17.675C8.07513 19.225 9.9668 20 12.2001 20Z" fill="black" fill-opacity="0.5"/>
</g>
</svg>
