<svg width="24" height="24" viewBox="0 0 24 24" fill="none" xmlns="http://www.w3.org/2000/svg">
<g id="speaker_notes_24dp_FILL0_wght400_GRAD0_opsz24 (1) 1">
<path id="Vector" d="M7 14C7.28333 14 7.52083 13.9042 7.7125 13.7125C7.90417 13.5208 8 13.2833 8 13C8 12.7167 7.90417 12.4792 7.7125 12.2875C7.52083 12.0958 7.28333 12 7 12C6.71667 12 6.47917 12.0958 6.2875 12.2875C6.09583 12.4792 6 12.7167 6 13C6 13.2833 6.09583 13.5208 6.2875 13.7125C6.47917 13.9042 6.71667 14 7 14ZM7 11C7.28333 11 7.52083 10.9042 7.7125 10.7125C7.90417 10.5208 8 10.2833 8 10C8 9.71667 7.90417 9.47917 7.7125 9.2875C7.52083 9.09583 7.28333 9 7 9C6.71667 9 6.47917 9.09583 6.2875 9.2875C6.09583 9.47917 6 9.71667 6 10C6 10.2833 6.09583 10.5208 6.2875 10.7125C6.47917 10.9042 6.71667 11 7 11ZM7 8C7.28333 8 7.52083 7.90417 7.7125 7.7125C7.90417 7.52083 8 7.28333 8 7C8 6.71667 7.90417 6.47917 7.7125 6.2875C7.52083 6.09583 7.28333 6 7 6C6.71667 6 6.47917 6.09583 6.2875 6.2875C6.09583 6.47917 6 6.71667 6 7C6 7.28333 6.09583 7.52083 6.2875 7.7125C6.47917 7.90417 6.71667 8 7 8ZM10 14H15V12H10V14ZM10 11H18V9H10V11ZM10 8H18V6H10V8ZM2 22V4C2 3.45 2.19583 2.97917 2.5875 2.5875C2.97917 2.19583 3.45 2 4 2H20C20.55 2 21.0208 2.19583 21.4125 2.5875C21.8042 2.97917 22 3.45 22 4V16C22 16.55 21.8042 17.0208 21.4125 17.4125C21.0208 17.8042 20.55 18 20 18H6L2 22ZM5.15 16H20V4H4V17.125L5.15 16Z" fill="black" fill-opacity="0.5"/>
</g>
</svg>
