<svg width="40" height="40" viewBox="0 0 40 40" fill="none" xmlns="http://www.w3.org/2000/svg">
<g id="Social Media / Telegram">
<rect id="Logo Container" width="40" height="40" rx="20" fill="#34AADF"/>
<path id="Vector" d="M11.1281 19.2915C11.1281 19.2915 19.266 15.864 22.0884 14.6571C23.1703 14.1743 26.8394 12.6295 26.8394 12.6295C26.8394 12.6295 28.5329 11.9536 28.3917 13.595C28.3446 14.2709 27.9683 16.6363 27.592 19.195C27.0275 22.8157 26.416 26.7742 26.416 26.7742C26.416 26.7742 26.3219 27.8846 25.5223 28.0777C24.7226 28.2708 23.4055 27.4019 23.1703 27.2087C22.9821 27.0639 19.6423 24.8915 18.4193 23.8294C18.09 23.5398 17.7137 22.9605 18.4663 22.2846C20.1597 20.6915 22.1824 18.7122 23.4055 17.4571C23.97 16.8777 24.5344 15.526 22.1824 17.1674C18.8426 19.5329 15.5499 21.7536 15.5499 21.7536C15.5499 21.7536 14.7972 22.2363 13.386 21.8018C11.9748 21.3674 10.3284 20.7881 10.3284 20.7881C10.3284 20.7881 9.19952 20.0639 11.1281 19.2915Z" fill="white"/>
</g>
</svg>
