<svg width="17" height="16" viewBox="0 0 17 16" fill="none" xmlns="http://www.w3.org/2000/svg">
<path d="M2.16667 15.5C1.70833 15.5 1.31597 15.3368 0.989583 15.0104C0.663194 14.684 0.5 14.2917 0.5 13.8333V2.16667C0.5 1.70833 0.663194 1.31597 0.989583 0.989583C1.31597 0.663194 1.70833 0.5 2.16667 0.5H13.8333C14.2917 0.5 14.684 0.663194 15.0104 0.989583C15.3368 1.31597 15.5 1.70833 15.5 2.16667V4.25H13.8333V2.16667H2.16667V13.8333H13.8333V11.75H15.5V13.8333C15.5 14.2917 15.3368 14.684 15.0104 15.0104C14.684 15.3368 14.2917 15.5 13.8333 15.5H2.16667ZM8.83333 12.1667C8.375 12.1667 7.98264 12.0035 7.65625 11.6771C7.32986 11.3507 7.16667 10.9583 7.16667 10.5V5.5C7.16667 5.04167 7.32986 4.64931 7.65625 4.32292C7.98264 3.99653 8.375 3.83333 8.83333 3.83333H14.6667C15.125 3.83333 15.5174 3.99653 15.8437 4.32292C16.1701 4.64931 16.3333 5.04167 16.3333 5.5V10.5C16.3333 10.9583 16.1701 11.3507 15.8437 11.6771C15.5174 12.0035 15.125 12.1667 14.6667 12.1667H8.83333ZM14.6667 10.5V5.5H8.83333V10.5H14.6667ZM11.3333 9.25C11.6806 9.25 11.9757 9.12847 12.2187 8.88542C12.4618 8.64236 12.5833 8.34722 12.5833 8C12.5833 7.65278 12.4618 7.35764 12.2187 7.11458C11.9757 6.87153 11.6806 6.75 11.3333 6.75C10.9861 6.75 10.691 6.87153 10.4479 7.11458C10.2049 7.35764 10.0833 7.65278 10.0833 8C10.0833 8.34722 10.2049 8.64236 10.4479 8.88542C10.691 9.12847 10.9861 9.25 11.3333 9.25Z" fill="black"/>
</svg>
