<svg width="40" height="40" viewBox="0 0 40 40" fill="none" xmlns="http://www.w3.org/2000/svg">
<g id="Social Media / Youtube">
<rect id="Logo Container" width="40" height="40" rx="20" fill="#FF0000"/>
<g id="Vector">
<path d="M31.1253 14.4982C30.8641 13.5164 30.0915 12.7419 29.1086 12.4764C27.3313 12.0001 20.2004 12.0001 20.2004 12.0001C20.2004 12.0001 13.0731 12.0001 11.2922 12.4764C10.3129 12.7382 9.54035 13.5128 9.27557 14.4982C8.80042 16.2801 8.80042 20.0001 8.80042 20.0001C8.80042 20.0001 8.80042 23.7201 9.27557 25.5019C9.53672 26.4837 10.3093 27.2582 11.2922 27.5237C13.0731 28.0001 20.2004 28.0001 20.2004 28.0001C20.2004 28.0001 27.3313 28.0001 29.1086 27.5237C30.0879 27.2619 30.8605 26.4873 31.1253 25.5019C31.6004 23.7201 31.6004 20.0001 31.6004 20.0001C31.6004 20.0001 31.6004 16.2801 31.1253 14.4982Z" fill="white"/>
<path d="M17.9226 23.4292L23.8457 20.0001L17.9226 16.571V23.4292Z" fill="#FF0000"/>
</g>
</g>
</svg>
